<svg width="58" height="56" viewBox="0 0 58 56" fill="none" xmlns="http://www.w3.org/2000/svg">
<path d="M3.88927 19.279L0.340787 22.5118C0.0534599 22.7736 0.0556985 23.1793 0.345914 23.4411C0.491021 23.5719 0.679083 23.6374 0.852346 23.6374C1.02561 23.6374 1.22739 23.5719 1.35661 23.4411L4.90509 20.2083C5.19242 19.9465 5.19018 19.5408 4.89997 19.279C4.62426 19.0303 4.16223 19.0303 3.88927 19.279ZM57.1672 32.3149L52.5237 28.1136C52.2335 27.8518 51.7859 27.8518 51.4986 28.1136L47.1887 32.04C46.2363 32.1447 45.2844 32.328 44.3763 32.6159L47.9536 29.3569C50.1372 27.3675 51.5233 24.7368 51.8688 21.949L56.1787 18.0225C56.308 17.9047 56.3937 17.7346 56.3928 17.5644C56.3919 17.3943 56.3187 17.2241 56.1737 17.1063L51.5157 12.905C51.2255 12.6433 50.7779 12.6433 50.4906 12.905L46.1807 16.8315C45.2283 16.9362 44.2764 17.1194 43.3684 17.4074L44.1872 16.6613C46.3709 14.6719 47.757 12.0412 48.1025 9.25339L52.4124 5.32692C52.6998 5.06515 52.6975 4.65942 52.4073 4.39765L47.7494 0.196324C47.4591 -0.0654413 47.0115 -0.0654413 46.7242 0.196324L42.4143 4.1228C39.3407 4.45001 36.4456 5.71957 34.2619 7.70898L29.3055 12.2244C29.6042 11.3999 29.816 10.5491 29.9267 9.67222L34.2366 5.74574C34.5239 5.48398 34.5217 5.07824 34.2315 4.81648L29.6169 0.615148C29.4863 0.497354 29.2981 0.418824 29.1104 0.418824C28.9227 0.418824 28.7354 0.484265 28.6062 0.615148L24.2963 4.54162C21.2226 4.86883 18.3275 6.13839 16.1438 8.1278L6.44655 16.9624C6.15922 17.2241 6.16146 17.6299 6.45168 17.8916C6.74189 18.1534 7.18949 18.1534 7.47681 17.8916L17.1741 9.05707C18.6538 7.70898 20.4821 6.72736 22.4862 6.20383L18.1187 10.1696C17.4291 10.7978 17.0439 11.6355 17.0488 12.5255C17.0531 13.2977 17.346 14.0437 17.8979 14.6327C17.9705 14.7112 18.0577 14.8028 18.1447 14.8813L18.5946 15.2871C19.2475 15.8761 20.1013 16.2163 21.0111 16.2556C21.0689 16.2556 21.1267 16.2556 21.1988 16.2556C22.1807 16.2556 23.1029 15.9153 23.7924 15.274L28.131 11.3213C27.5634 13.1275 26.4897 14.7897 25.0244 16.1378L9.22144 30.5349C8.93412 30.7967 8.93635 31.2024 9.22657 31.4642C9.51679 31.7259 9.96438 31.7259 10.2517 31.4642L26.0403 17.0802L35.321 8.62516C36.8007 7.27707 38.629 6.29545 40.633 5.77192L36.2944 9.72457C34.8721 11.0203 34.8838 13.1406 36.3204 14.4363L36.7702 14.8421C36.8138 14.8813 36.8573 14.9206 36.9008 14.9599C37.0314 15.0646 37.1618 15.1562 37.2922 15.2347C37.3357 15.2609 37.3791 15.2871 37.437 15.3133C37.5094 15.3525 37.5818 15.3918 37.6542 15.4311C38.1898 15.6797 38.7825 15.8106 39.3601 15.8106C39.9376 15.8106 40.5289 15.6797 41.0617 15.4311C41.1337 15.3918 41.2057 15.3525 41.2777 15.3133C41.3784 15.2609 41.4648 15.2085 41.5511 15.1431C41.6373 15.0777 41.7237 15.0253 41.8099 14.9468C41.853 14.9075 41.8961 14.8683 41.9392 14.829L46.2778 10.8763C45.7102 12.6825 44.6366 14.3578 43.1568 15.7059L18.1165 38.558C17.8292 38.8198 17.8314 39.2255 18.1217 39.4873C18.4119 39.749 18.8595 39.749 19.1468 39.4873L39.0729 21.3339C40.5526 19.9858 42.3809 19.0041 44.385 18.4806L40.0463 22.4333C40.0033 22.4725 39.9602 22.5118 39.9171 22.5511L39.9027 22.5641C39.8596 22.6034 39.8309 22.6427 39.7878 22.6819C39.2569 23.2709 38.9721 24.0039 38.9765 24.7892C38.981 25.6137 39.3174 26.399 39.9272 27.0142C39.9272 27.0142 39.9272 27.0142 39.9418 27.0272C39.9853 27.0665 40.0288 27.1058 40.0723 27.145L40.5222 27.5508C41.2187 28.179 42.1447 28.5324 43.1265 28.5324C44.1084 28.5324 45.0305 28.1921 45.7201 27.5508L50.0587 23.5981C49.4911 25.4043 48.4175 27.0796 46.9377 28.4277L39.0219 35.6393L27.0116 46.5811C26.7243 46.8429 26.7265 47.2486 27.0168 47.5104C27.307 47.7721 27.7546 47.7721 28.0419 47.5104L40.0665 36.5555C41.5462 35.2074 43.3746 34.2389 45.3642 33.7022L41.0112 37.668C40.3216 38.2962 39.9364 39.1339 39.9413 40.0239C39.9462 40.9139 40.3262 41.7515 41.0372 42.3798L41.487 42.7855C42.6043 43.7933 44.266 44.0158 45.6201 43.453C45.6777 43.4268 45.7209 43.4006 45.7786 43.3876H45.793C46.1098 43.2305 46.4119 43.0342 46.6849 42.7986L51.0236 38.8459C50.456 40.6521 49.3823 42.3274 47.9026 43.6755L35.8924 54.6173C35.605 54.879 35.6073 55.2848 35.8975 55.5465C36.0426 55.6774 36.2307 55.7429 36.4039 55.7429C36.5772 55.7429 36.779 55.6774 36.9082 55.5465L48.9184 44.6048C51.1021 42.6153 52.4881 39.9846 52.8337 37.1968L57.1436 33.2703C57.4597 32.9824 57.4574 32.5636 57.1672 32.3149ZM22.7622 14.3578C22.7047 14.4102 22.6472 14.4494 22.5897 14.5018L22.5753 14.5149C21.8276 15.0646 20.7593 15.1038 19.9625 14.6196C19.9046 14.5934 19.8611 14.5541 19.8031 14.5149C19.7887 14.5149 19.7886 14.5018 19.7742 14.5018C19.7162 14.4625 19.6582 14.4102 19.6001 14.3578L19.1503 13.9521C18.7295 13.5725 18.4957 13.0621 18.4927 12.5255C18.4897 11.9888 18.7179 11.4784 19.1346 11.0988L29.1048 2.01559L32.7325 5.28765L22.7622 14.3578ZM40.9379 13.9259C40.0759 14.7112 38.661 14.7112 37.7903 13.9259L37.3405 13.5202C36.4698 12.7349 36.4628 11.4522 37.3247 10.6669L47.295 1.58368L50.9227 4.85574L40.9379 13.9259ZM44.6899 26.6346C44.2732 27.0142 43.7113 27.2236 43.1193 27.2236C42.5273 27.2236 41.9631 27.0142 41.5423 26.6346L41.0924 26.2289C41.0779 26.2158 41.0778 26.2027 41.0634 26.2027C41.0199 26.1634 40.9763 26.1242 40.9473 26.0849C40.9327 26.0718 40.9327 26.0587 40.9182 26.0587C40.8747 26.0194 40.8455 25.9671 40.802 25.9278C40.802 25.9278 40.802 25.9278 40.8019 25.9147C40.3218 25.2472 40.3169 24.3703 40.7897 23.7028C40.7897 23.7028 40.7897 23.7028 40.7897 23.6897C40.8182 23.6374 40.8613 23.5981 40.9044 23.5458C40.9187 23.5327 40.9187 23.5327 40.9331 23.5196C40.9761 23.4672 41.0336 23.4149 41.0911 23.3625L51.0613 14.2793L54.689 17.5513L50.6806 21.1768L44.6899 26.6346ZM45.669 41.8562C45.5685 41.9478 45.4535 42.0395 45.3239 42.1049C44.9642 42.3274 44.5316 42.4452 44.0841 42.4452C43.6365 42.4452 43.2026 42.3274 42.8405 42.1049C42.7245 42.0264 42.6086 41.9478 42.4926 41.8562L42.0427 41.4505C41.6219 41.0709 41.3881 40.5605 41.3851 40.0239C41.3822 39.4873 41.6104 38.9768 42.027 38.5973L51.9972 29.514L55.6249 32.7861L45.669 41.8562Z" fill="#420E40"/>
</svg>
