<svg width="146" height="37" viewBox="0 0 146 37" fill="none" xmlns="http://www.w3.org/2000/svg">
<path d="M29.8742 20.296C29.8742 21.534 29.4769 22.6851 28.6824 23.7494C27.5584 25.2698 26.0566 26.3666 24.1768 27.0399C22.7815 27.5395 21.425 27.7892 20.1072 27.7892C19.6227 27.7892 19.1479 27.7567 18.6829 27.6915C15.6404 27.2571 13.0629 26.5078 10.9506 25.4435C9.03212 27.0291 7.00701 27.8218 4.87533 27.8218C2.35606 27.8218 0.796049 27.0399 0.195301 25.4761C0.0596477 25.1069 -0.00817871 24.6725 -0.00817871 24.1729C-0.00817871 23.6734 0.21468 23.1413 0.660396 22.5765C1.35804 21.7078 2.32699 21.2734 3.56724 21.2734C4.38116 21.2734 5.11756 21.4037 5.77645 21.6643C6.43533 21.925 7.24925 22.3485 8.2182 22.9349C9.18715 23.5213 9.90417 23.9449 10.3693 24.2055C11.2219 23.2716 12.1037 21.9727 13.0145 20.309C13.9253 18.6496 14.7257 17.0228 15.4156 15.4286C16.1016 13.8301 16.9775 12.0534 18.0433 10.0986C19.1092 8.14388 20.1944 6.48233 21.299 5.11399L22.9559 2.99633C21.425 2.69226 19.739 2.54022 17.898 2.54022C16.057 2.54022 14.0319 2.81172 11.8227 3.35471C8.79957 4.07145 6.47409 5.52667 4.84626 7.72035C3.85793 9.04524 3.36376 10.305 3.36376 11.4996C3.36376 13.0851 4.05172 14.1168 5.42763 14.5946C5.9121 14.7466 6.33844 14.8227 6.70664 14.8227C7.07484 14.8227 7.50118 14.7466 7.98565 14.5946C8.47013 14.4426 8.94104 14.1211 9.39838 13.6302C9.85185 13.1437 10.1813 12.6724 10.3867 12.2163C10.5882 11.7602 10.689 11.417 10.689 11.1868C10.689 10.9609 10.7859 10.848 10.9797 10.848C11.1735 10.8697 11.2801 11.0217 11.2995 11.3041V11.3367C11.0863 12.9222 10.3305 14.1276 9.03212 14.953C8.23758 15.4308 7.44304 15.6697 6.6485 15.6697L5.13694 15.3765C3.08277 14.5729 2.05568 13.0742 2.05568 10.8805C2.05568 9.38189 2.64674 7.90496 3.82886 6.44975C5.728 4.06059 8.51857 2.5728 12.2006 1.98637C13.9834 1.70402 15.84 1.56284 17.7701 1.56284C19.6964 1.56284 21.6575 1.80176 23.6536 2.27959C24.1962 1.75832 24.671 1.4108 25.0779 1.23705C25.4849 1.06329 25.7232 0.976411 25.793 0.976411C25.8589 0.976411 25.9015 0.987271 25.9209 1.00899C26.0372 1.00899 26.0624 1.07849 25.9965 1.2175C25.9267 1.36085 25.7135 1.56284 25.357 1.82348C24.9965 2.08411 24.7775 2.32303 24.7 2.54022C27.3356 3.30041 29.2347 4.38639 30.3974 5.79816C31.0176 6.58007 31.3276 7.37718 31.3276 8.18949C31.3276 9.00614 31.1145 9.82715 30.6881 10.6525C30.1261 11.7385 29.2153 12.5573 27.9557 13.109C26.6961 13.665 25.4267 13.9756 24.1477 14.0407C25.388 14.4751 26.541 15.0833 27.6069 15.8652C29.1184 16.9729 29.8742 18.4498 29.8742 20.296ZM19.7002 26.877C21.8707 26.877 23.7117 26.182 25.2233 24.7919C26.8705 23.315 27.6941 21.7186 27.6941 20.0028C27.6941 18.2218 26.8511 16.8752 25.1651 15.9629C24.545 15.6371 23.7853 15.3157 22.8862 14.9986C21.9831 14.6858 21.2564 14.4208 20.706 14.2036C20.1518 13.9864 19.8359 13.7801 19.7584 13.5846C19.7584 13.172 20.0394 12.9548 20.6014 12.933C20.9696 12.933 21.5316 12.9656 22.2873 13.0308C23.0431 13.0959 23.6923 13.122 24.2349 13.109C24.7775 13.1003 25.4326 12.8831 26.2 12.4574C26.9635 12.036 27.6166 11.4887 28.1592 10.8154C29.0312 9.72941 29.4673 8.70859 29.4673 7.75292C29.4673 5.71128 27.7619 4.24521 24.3512 3.35471C23.3241 4.94024 21.4831 8.2894 18.8282 13.4022C16.1733 18.5193 14.1288 21.9467 12.6947 23.6842L11.5901 24.8571C13.78 25.8779 16.1345 26.5295 18.6538 26.8119C19.022 26.8553 19.3708 26.877 19.7002 26.877ZM9.72976 24.8245C7.46242 23.6082 6.02838 22.8806 5.42763 22.6417C4.82688 22.4028 4.23194 22.2833 3.64282 22.2833C3.04983 22.2833 2.57892 22.5157 2.23009 22.9805C1.88127 23.4497 1.70686 23.8732 1.70686 24.2511C1.70686 24.6334 1.78438 24.9983 1.93941 25.3458C2.36575 26.3232 3.25718 26.8119 4.61371 26.8119C6.45471 26.8119 8.16006 26.1494 9.72976 24.8245ZM32.8973 21.534C32.626 22.2725 32.4904 23.0978 32.4904 24.01C32.4904 24.6182 32.6105 25.1004 32.8508 25.4566C33.095 25.8171 33.4399 25.9974 33.8857 25.9974C35.6492 25.9974 37.2479 24.1404 38.682 20.4263C38.8176 20.0788 38.9823 19.9268 39.1761 19.9702C39.2536 19.9919 39.2924 20.0462 39.2924 20.1331C39.2924 20.22 39.0734 20.789 38.6355 21.8403C38.2014 22.8958 37.7615 23.7494 37.3157 24.401C36.3274 25.9214 35.1065 26.6815 33.6531 26.6815C32.878 26.6815 32.2191 26.3992 31.6765 25.8345C31.1338 25.2698 30.8625 24.4987 30.8625 23.5213C30.8625 22.544 31.0699 21.5058 31.4846 20.4068C31.9032 19.3121 32.471 18.2913 33.188 17.3443C33.905 16.4017 34.7286 15.7132 35.6588 15.2788C36.1046 15.0616 36.5309 14.953 36.9379 14.953C37.3448 14.953 37.7227 15.0833 38.0715 15.3439C38.401 15.648 38.5657 15.9847 38.5657 16.3539C38.5657 17.6571 37.868 18.9059 36.4728 20.1005C36.0464 20.4697 35.4457 20.7999 34.6705 21.0909C33.8954 21.3863 33.3043 21.534 32.8973 21.534ZM37.7808 16.3213C37.7808 15.8869 37.6258 15.6697 37.3157 15.6697C36.7731 15.6697 35.9495 16.419 34.8449 17.9177C34.186 18.8299 33.6047 19.8507 33.1008 20.9802C33.4303 20.9802 33.9089 20.8498 34.5368 20.5892C35.1686 20.3286 35.717 19.9811 36.1821 19.5467C37.2479 18.5258 37.7808 17.4507 37.7808 16.3213ZM47.606 17.7222C47.2572 18.1132 46.763 18.9993 46.1235 20.3807C45.484 21.7577 45.1003 22.7872 44.9724 23.4692C44.8484 24.1556 44.7863 24.7094 44.7863 25.1308C44.7863 25.5565 44.9317 25.7693 45.2224 25.7693C45.5906 25.7693 46.046 25.3892 46.5886 24.629C47.3831 23.5213 48.168 22.077 48.9431 20.296C49.0206 20.1005 49.1079 19.9919 49.2048 19.9702C49.3598 19.905 49.4373 19.9702 49.4373 20.1657C49.4373 20.2743 49.4082 20.4046 49.3501 20.5566C47.5672 24.5965 46.0654 26.6164 44.8445 26.6164C44.2825 26.6164 43.8271 26.3123 43.4783 25.7042C43.3039 25.3784 43.2166 24.944 43.2166 24.401C43.2166 23.858 43.3135 23.1956 43.5073 22.4137C41.957 25.2155 40.6199 26.6164 39.4959 26.6164C39.1858 26.6164 38.9048 26.5078 38.6529 26.2906C38.0715 25.8345 37.7808 25.0526 37.7808 23.9449C37.7808 21.8164 38.6044 19.6553 40.2517 17.4616C41.1819 16.2453 42.3252 15.4525 43.6817 15.0833C44.0499 14.9747 44.3988 14.9204 44.7282 14.9204C45.6196 14.9204 46.3754 15.2679 46.9955 15.9629C47.1893 16.2018 47.2475 16.4299 47.17 16.6471C47.0924 16.8643 46.9277 16.9512 46.6758 16.9077C46.4626 16.1258 45.9975 15.7349 45.2805 15.7349C44.4472 15.7349 43.4201 16.4733 42.1992 17.9503C41.5016 18.8191 40.8524 19.8399 40.2517 21.0127C39.4959 22.4245 39.118 23.5539 39.118 24.401C39.118 25.2481 39.3602 25.6716 39.8447 25.6716C41.0074 25.6716 42.5287 23.6734 44.4085 19.677C44.7767 18.8734 45.0867 18.3239 45.3386 18.0285C45.5906 17.7374 45.9103 17.5919 46.2979 17.5919C46.3754 17.5919 46.5731 17.6245 46.8909 17.6896C47.2126 17.7548 47.451 17.7657 47.606 17.7222ZM47.9199 24.6616C47.9199 23.7277 48.2784 22.5983 48.9955 21.2734C48.6854 21.2734 48.5982 21.0996 48.7338 20.7521L49.2571 19.6118C49.916 18.2 50.4586 17.0055 50.8849 16.0281C51.0787 15.572 51.4566 15.3439 52.0186 15.3439H53.7918C53.0941 15.9086 52.3926 16.999 51.6872 18.6149C50.9779 20.2352 50.4295 21.5058 50.0419 22.4267C49.6543 23.3519 49.4606 24.0535 49.4606 24.5313C49.4606 25.0091 49.5342 25.3458 49.6815 25.5413C49.8249 25.7367 50.0225 25.8345 50.2745 25.8345C50.6427 25.8345 51.1562 25.4001 51.8151 24.5313C52.8422 23.1847 54.2859 20.3503 56.1463 16.0281C56.3595 15.572 56.7374 15.3439 57.28 15.3439H58.8497C58.4233 15.7132 58.09 16.0932 57.8497 16.4842C57.6055 16.8752 57.2703 17.5702 56.8439 18.5693C55.6812 21.1756 55.032 22.9023 54.8964 23.7494C54.8382 24.0535 54.8092 24.3358 54.8092 24.5965C54.8092 25.2915 55.0223 25.6607 55.4487 25.7042C56.4951 25.7042 57.7838 23.8906 59.3148 20.2634C59.431 19.9593 59.5473 19.8399 59.6636 19.905C59.7799 19.9702 59.838 20.0571 59.838 20.1657C59.838 20.2743 59.7508 20.524 59.5764 20.915C59.402 21.306 59.2334 21.686 59.0706 22.0553C58.9039 22.4245 58.652 22.9284 58.3148 23.567C57.9737 24.2099 57.6579 24.7159 57.3672 25.0852C56.6114 26.0408 55.8711 26.5187 55.1464 26.5187C54.4177 26.5187 53.9177 26.1603 53.6464 25.4435C53.5301 25.1177 53.472 24.7051 53.472 24.2055C53.472 23.706 53.5689 23.087 53.7627 22.3485C52.348 25.1286 51.0399 26.5187 49.8384 26.5187C48.792 26.5187 48.1815 26.03 48.0071 25.0526C47.949 24.944 47.9199 24.8137 47.9199 24.6616ZM58.5881 23.9449C58.5881 22.1422 59.3632 19.1231 60.9135 14.8878H59.402C59.3051 14.8878 59.2431 14.827 59.2159 14.7054C59.1849 14.5881 59.1946 14.4686 59.245 14.347C59.2915 14.2297 59.3632 14.1711 59.4601 14.1711H61.2042C61.9019 12.4552 62.5511 11.0217 63.1518 9.87058C63.7526 8.71945 64.3049 7.94188 64.8087 7.5379C65.3126 7.13826 65.6769 6.93844 65.9017 6.93844C66.1226 6.93844 66.2815 6.96016 66.3784 7.0036C66.8241 7.24251 67.047 7.73555 67.047 8.4827C67.047 9.2342 66.8241 10.1421 66.3784 11.2063C65.9327 12.2706 65.4967 13.2588 65.0703 14.1711H66.4656C66.5625 14.1711 66.6265 14.2297 66.6575 14.347C66.6846 14.4686 66.6749 14.5881 66.6284 14.7054C66.578 14.827 66.5044 14.8878 66.4075 14.8878H64.7215C63.6557 16.9077 62.367 18.6996 60.8554 20.2634L60.1868 23.5865C60.1287 23.8689 60.0996 24.1447 60.0996 24.414C60.0996 24.6877 60.1674 24.9657 60.3031 25.2481C60.4387 25.5304 60.6519 25.6716 60.9426 25.6716C61.272 25.6716 61.6402 25.5413 62.0472 25.2806C62.9774 24.4987 64.0045 22.8589 65.1285 20.3611C65.206 20.1657 65.299 20.0462 65.4075 20.0028C65.5122 19.9593 65.5742 19.9854 65.5936 20.081C65.6129 20.1809 65.5839 20.3394 65.5064 20.5566C64.8668 22.0553 64.363 23.1195 63.9948 23.7494C62.9483 25.639 61.834 26.5838 60.6519 26.5838C60.0512 26.5838 59.557 26.334 59.1694 25.8345C58.7818 25.3349 58.5881 24.7051 58.5881 23.9449ZM62.9774 14.1711H64.4308C65.7098 11.6082 66.3493 9.82714 66.3493 8.82804C66.3493 8.39365 66.2815 8.17646 66.1459 8.17646C65.9327 8.17646 65.6091 8.52397 65.175 9.219C64.737 9.91402 64.0045 11.5647 62.9774 14.1711ZM64.0529 14.8878H62.6867C62.4542 15.496 61.9309 16.9403 61.117 19.2209C62.1635 18.0046 63.1421 16.5602 64.0529 14.8878ZM61.0879 36.8463C60.2353 36.8463 59.5764 36.6465 59.1113 36.2469C58.6462 35.8429 58.4136 35.3585 58.4136 34.7938C58.4136 34.2291 58.559 33.5884 58.8497 32.8716C59.3535 31.7639 60.2643 30.8734 61.5821 30.2001C62.5704 29.6789 63.8785 29.1967 65.5064 28.7536C67.1342 28.3062 68.1806 28.0064 68.6457 27.8544C69.3434 26.4861 70.1767 24.0426 71.1456 20.524C70.0217 22.7394 69.0818 24.2924 68.326 25.1829C67.5702 26.0734 66.8047 26.5187 66.0296 26.5187C64.9831 26.5187 64.3727 26.03 64.1983 25.0526C64.1208 24.9005 64.1014 24.6725 64.1401 24.3684C64.1789 24.0643 64.2021 23.8471 64.2099 23.7168C64.2215 23.5865 64.2855 23.3737 64.4017 23.0783C64.518 22.7872 64.5955 22.5765 64.6343 22.4462C64.8475 21.9467 65.0316 21.5557 65.1866 21.2734C64.8765 21.2734 64.7893 21.0996 64.925 20.7521L65.4482 19.6118C66.1071 18.2 66.6497 17.0055 67.076 16.0281C67.2698 15.572 67.6477 15.3439 68.2097 15.3439H69.9829C69.9441 15.3874 69.8472 15.4742 69.6922 15.6046C69.3434 15.8652 69.0818 16.1693 68.9074 16.5168C68.2097 17.8634 67.3377 19.7856 66.2912 22.2833C65.8649 23.3042 65.6517 24.0535 65.6517 24.5313C65.6517 25.0091 65.7234 25.3458 65.8668 25.5413C66.0141 25.7367 66.2137 25.8345 66.4656 25.8345C66.8338 25.8345 67.3474 25.4001 68.0062 24.5313C69.3821 22.7286 70.9034 19.8942 72.57 16.0281C72.7832 15.572 73.161 15.3439 73.7037 15.3439H75.2734C74.7695 15.7349 74.3722 16.2279 74.0816 16.823C73.7909 17.4225 73.475 18.2326 73.1339 19.2534C72.7967 20.2743 72.3704 21.6317 71.8549 23.3259C71.3433 25.02 70.9518 26.2906 70.6805 27.1377C72.5022 26.5295 73.8974 25.4544 74.8664 23.9123C75.2927 23.239 75.9032 22.0444 76.6977 20.3286C76.8334 20.0245 76.9535 19.905 77.0582 19.9702C77.1667 20.0354 77.2209 20.1222 77.2209 20.2308C77.2209 20.3394 77.0601 20.7564 76.7384 21.4819C76.4206 22.2117 76.097 22.8871 75.7675 23.5083C75.4381 24.1252 75.0117 24.7594 74.4885 25.411C73.9653 26.0625 73.3839 26.5795 72.7444 26.9617C72.1049 27.3397 71.2522 27.7458 70.1864 28.1802C68.6942 31.2209 67.1923 33.4581 65.6808 34.8916C64.2661 36.1947 62.7352 36.8463 61.0879 36.8463ZM59.402 33.621C59.1888 34.0988 59.0822 34.5397 59.0822 34.9437C59.0822 35.3433 59.2179 35.6517 59.4892 35.8689C59.7605 36.0861 60.0996 36.1947 60.5066 36.1947C61.6306 36.1947 62.8321 35.5497 64.1111 34.2595C65.3901 32.965 66.5141 31.5793 67.483 30.1024L68.1225 28.8969C64.925 29.8309 62.9096 30.5042 62.0763 30.9169C60.836 31.525 59.9446 32.4264 59.402 33.621ZM108.754 4.42983C108.754 3.66964 108.444 2.95289 107.824 2.27959C106.933 1.32392 105.702 0.846093 104.133 0.846093C102.757 0.846093 101.235 1.18275 99.5688 1.85605C98.6967 2.20357 97.941 2.6814 97.3015 3.28955C96.3131 4.24521 95.819 5.20087 95.819 6.15653C95.819 7.43799 96.5457 8.58913 97.9991 9.60995C98.5417 9.97918 99.6327 10.5808 101.272 11.4148C102.908 12.2532 104.103 12.933 104.859 13.4543C106.003 14.2362 106.793 15.0724 107.231 15.9629C107.665 16.8534 107.882 17.6788 107.882 18.439C107.882 19.5249 107.563 20.6326 106.923 21.7621C105.799 23.782 104.152 25.5196 101.981 26.9748C99.4816 28.6689 96.4682 29.516 92.9412 29.516C89.5499 29.516 86.8562 28.5494 84.8601 26.6164C83.3098 25.1395 82.5347 23.239 82.5347 20.915C82.5347 19.4381 83.0153 17.8091 83.9765 16.0281C84.9338 14.2471 86.1101 12.9873 87.5054 12.2489C87.7961 12.1186 88.015 12.0751 88.1623 12.1186C88.3057 12.162 88.1836 12.3683 87.7961 12.7376C86.9628 13.476 86.2942 14.2905 85.7903 15.181C84.7051 17.0923 84.1625 19.1666 84.1625 21.4037C84.1625 22.8806 84.5307 24.1729 85.2671 25.2806C86.5849 27.2571 88.8716 28.3757 92.1273 28.6363C92.4955 28.6798 93.0439 28.7015 93.7725 28.7015C94.4973 28.7015 95.4856 28.556 96.7375 28.2649C97.9855 27.9695 99.1909 27.4852 100.354 26.8119C102.854 25.3349 104.472 23.4236 105.208 21.0779C105.441 20.3829 105.557 19.7096 105.557 19.058C105.557 17.581 104.966 16.2779 103.784 15.1484C103.144 14.5837 101.842 13.8279 99.8769 12.8809C97.908 11.9383 96.5844 11.2172 95.9062 10.7176C94.414 9.58823 93.6679 8.25247 93.6679 6.71038C93.6679 5.36377 94.3365 4.04973 95.6736 2.76828C97.5921 0.943832 100.305 0.0316086 103.813 0.0316086C105.46 0.0316086 106.803 0.307448 107.842 0.859125C108.877 1.41515 109.51 2.24701 109.743 3.35471C109.782 3.5719 109.801 3.7891 109.801 4.0063C109.801 4.85336 109.452 5.61354 108.754 6.28685C108.27 6.72124 107.621 7.06876 106.807 7.32939C106.458 7.43799 106.264 7.39455 106.225 7.19907C106.187 6.91672 106.429 6.74296 106.952 6.6778C107.882 6.54749 108.454 6.02622 108.667 5.11399C108.725 4.87508 108.754 4.64702 108.754 4.42983ZM119.161 17.6896C119.161 18.6453 118.938 19.6987 118.492 20.8498C118.047 22.001 117.432 23.1087 116.649 24.1729C115.863 25.2372 114.907 25.9648 113.783 26.3558C113.357 26.4861 112.869 26.5512 112.318 26.5512C111.764 26.5512 111.157 26.3558 110.499 25.9648L107.737 33.6861C107.446 34.3811 107.175 34.8373 106.923 35.0545C106.671 35.2716 106.429 35.3802 106.196 35.3802C105.964 35.3802 105.824 35.3802 105.778 35.3802C105.727 35.3802 105.553 35.3477 105.255 35.2825C104.952 35.2173 104.724 35.1956 104.569 35.2174C104.995 34.7612 106.076 32.5958 107.813 28.721C109.545 24.8419 110.528 22.229 110.76 20.8824C110.547 21.2299 110.344 21.4145 110.15 21.4363C110.033 21.4363 110.033 21.3103 110.15 21.0583C110.266 20.8107 110.46 20.3286 110.731 19.6118C111.08 18.6779 111.254 17.8134 111.254 17.0185C111.254 16.2279 111.119 15.7675 110.847 15.6371C112.01 15.4199 112.688 15.3157 112.882 15.3244C113.076 15.3374 113.198 15.4308 113.248 15.6046C113.295 15.7783 113.318 15.9738 113.318 16.191C113.318 17.5159 113.047 18.9928 112.504 20.6218L113.086 19.5792C113.783 18.3195 114.293 17.505 114.615 17.1358C114.932 16.7666 115.275 16.3865 115.644 15.9955C116.206 15.3874 116.748 15.0833 117.271 15.0833C117.427 15.0833 117.572 15.105 117.708 15.1484C118.676 15.4308 119.161 16.2779 119.161 17.6896ZM117.766 17.3638C117.766 17.0163 117.704 16.6949 117.58 16.3995C117.452 16.1085 117.252 15.9629 116.981 15.9629C116.303 15.9629 115.514 16.6688 114.615 18.0806C113.712 19.4924 112.417 21.9575 110.731 25.4761C110.983 25.7585 111.332 25.8996 111.778 25.8996C112.223 25.8996 112.853 25.5196 113.667 24.7594C114.965 23.5431 116.051 22.0336 116.923 20.2308C117.485 19.058 117.766 18.1023 117.766 17.3638ZM129.044 17.7222C128.695 18.1132 128.201 18.9993 127.562 20.3807C126.922 21.7577 126.539 22.7872 126.411 23.4692C126.287 24.1556 126.225 24.7094 126.225 25.1308C126.225 25.5565 126.37 25.7693 126.661 25.7693C127.029 25.7693 127.484 25.3892 128.027 24.629C128.821 23.5213 129.606 22.077 130.381 20.296C130.459 20.1005 130.546 19.9919 130.643 19.9702C130.798 19.905 130.876 19.9702 130.876 20.1657C130.876 20.2743 130.846 20.4046 130.788 20.5566C129.005 24.5965 127.504 26.6164 126.283 26.6164C125.721 26.6164 125.265 26.3123 124.917 25.7042C124.742 25.3784 124.655 24.944 124.655 24.401C124.655 23.858 124.752 23.1956 124.946 22.4137C123.395 25.2155 122.058 26.6164 120.934 26.6164C120.624 26.6164 120.343 26.5078 120.091 26.2906C119.51 25.8345 119.219 25.0526 119.219 23.9449C119.219 21.8164 120.043 19.6553 121.69 17.4616C122.62 16.2453 123.763 15.4525 125.12 15.0833C125.488 14.9747 125.837 14.9204 126.166 14.9204C127.058 14.9204 127.814 15.2679 128.434 15.9629C128.628 16.2018 128.686 16.4299 128.608 16.6471C128.531 16.8643 128.366 16.9512 128.114 16.9077C127.901 16.1258 127.436 15.7349 126.719 15.7349C125.885 15.7349 124.858 16.4733 123.637 17.9503C122.94 18.8191 122.291 19.8399 121.69 21.0127C120.934 22.4245 120.556 23.5539 120.556 24.401C120.556 25.2481 120.798 25.6716 121.283 25.6716C122.446 25.6716 123.967 23.6734 125.847 19.677C126.215 18.8734 126.525 18.3239 126.777 18.0285C127.029 17.7374 127.349 17.5919 127.736 17.5919C127.814 17.5919 128.011 17.6245 128.329 17.6896C128.651 17.7548 128.889 17.7657 129.044 17.7222ZM135.73 19.058C136.408 18.1458 136.747 17.3747 136.747 16.7448C136.747 16.115 136.515 15.8 136.05 15.8C135.139 15.8 134.102 16.734 132.939 18.6019C132.571 19.1883 132.213 19.9593 131.864 20.915C131.515 21.8707 131.341 22.7351 131.341 23.5083C131.341 24.2772 131.48 24.9005 131.759 25.3784C132.042 25.8562 132.478 26.0951 133.067 26.0951C133.66 26.0951 134.209 25.9366 134.713 25.6195C135.216 25.3067 135.695 24.8071 136.149 24.1208C136.606 23.4388 136.951 22.8698 137.183 22.4137C137.416 21.9575 137.736 21.2734 138.143 20.3611C138.278 20.0571 138.395 19.9311 138.491 19.9832C138.588 20.0397 138.637 20.1157 138.637 20.2113C138.637 20.3112 138.505 20.6696 138.242 21.2864C137.982 21.9076 137.72 22.4897 137.457 23.0327C137.197 23.5756 136.825 24.1838 136.34 24.8571C135.468 26.0734 134.277 26.6815 132.765 26.6815C131.68 26.6815 130.899 26.3818 130.422 25.7824C129.949 25.1872 129.713 24.4987 129.713 23.7168C129.713 22.7612 129.92 21.7186 130.335 20.5892C130.753 19.4598 131.234 18.4824 131.777 17.6571C132.901 15.9412 134.199 15.0833 135.672 15.0833C136.389 15.0833 136.906 15.2722 137.224 15.6502C137.546 16.0324 137.707 16.4733 137.707 16.9729C137.707 17.7114 137.435 18.3412 136.893 18.8625C136.621 19.1449 136.393 19.286 136.207 19.286C136.025 19.286 135.866 19.21 135.73 19.058ZM139.212 21.534C138.941 22.2725 138.805 23.0978 138.805 24.01C138.805 24.6182 138.928 25.1004 139.172 25.4566C139.412 25.8171 139.755 25.9974 140.201 25.9974C141.964 25.9974 143.563 24.1404 144.997 20.4263C145.133 20.0788 145.297 19.9268 145.491 19.9702C145.569 19.9919 145.607 20.0462 145.607 20.1331C145.607 20.22 145.39 20.789 144.956 21.8403C144.518 22.8958 144.077 23.7494 143.631 24.401C142.642 25.9214 141.422 26.6815 139.968 26.6815C139.193 26.6815 138.534 26.3992 137.992 25.8345C137.449 25.2698 137.178 24.4987 137.178 23.5213C137.178 22.544 137.387 21.5058 137.805 20.4068C138.22 19.3121 138.786 18.2913 139.503 17.3443C140.22 16.4017 141.044 15.7132 141.974 15.2788C142.42 15.0616 142.846 14.953 143.253 14.953C143.66 14.953 144.038 15.0833 144.387 15.3439C144.716 15.648 144.881 15.9847 144.881 16.3539C144.881 17.6571 144.183 18.9059 142.788 20.1005C142.361 20.4697 141.761 20.7999 140.986 21.0909C140.21 21.3863 139.619 21.534 139.212 21.534ZM144.096 16.3213C144.096 15.8869 143.941 15.6697 143.631 15.6697C143.088 15.6697 142.265 16.419 141.16 17.9177C140.501 18.8299 139.92 19.8507 139.416 20.9802C139.745 20.9802 140.226 20.8498 140.858 20.5892C141.486 20.3286 142.032 19.9811 142.497 19.5467C143.563 18.5258 144.096 17.4507 144.096 16.3213Z" fill="#6B7280"/>
</svg>
