<svg width="64" height="64" viewBox="0 0 64 64" fill="none" xmlns="http://www.w3.org/2000/svg">
<path d="M63.8671 49.2826C63.7216 48.843 63.4495 48.4561 63.0851 48.1704C62.7206 47.8847 62.28 47.7129 61.8184 47.6766C60.8193 47.5903 59.8307 47.4094 58.8658 47.1364C58.835 47.1282 55.7503 46.2784 53.2872 44.2608C49.367 41.0501 47.1591 35.7286 47.0701 29.2771C47.0289 26.2854 46.8699 22.392 46.0217 18.6687C47.0482 19.2885 48.2249 19.6153 49.424 19.6137C49.5862 19.6137 49.7491 19.6078 49.9129 19.5959C50.1128 19.5815 50.3028 19.5034 50.4551 19.373C50.6074 19.2427 50.7138 19.067 50.7589 18.8717C51.0985 17.4225 50.9361 15.901 50.2984 14.5561C51.7565 14.2737 53.078 13.5111 54.0522 12.39C54.1833 12.2385 54.2624 12.0489 54.278 11.849C54.2934 11.6492 54.2445 11.4497 54.1383 11.2797C53.3486 10.0219 52.1603 9.06481 50.7632 8.56116C51.6008 7.33062 51.996 5.85217 51.8839 4.36779C51.8695 4.16792 51.7914 3.97793 51.661 3.82569C51.5307 3.67346 51.355 3.56699 51.1598 3.5219C49.7105 3.18184 48.1886 3.34426 46.8438 3.98253C46.5615 2.52447 45.7991 1.20292 44.6782 0.228684C44.5267 0.0975013 44.3371 0.01834 44.1373 0.00281665C43.9375 -0.0127067 43.7379 0.0362252 43.568 0.142432C42.3102 0.932146 41.3531 2.12037 40.8495 3.51752C39.619 2.6798 38.1405 2.28468 36.6562 2.39687C36.4563 2.41129 36.2663 2.48939 36.114 2.61972C35.9618 2.75004 35.8553 2.92573 35.8102 3.12101C35.7086 3.56364 35.652 4.01541 35.6414 4.46942C32.2637 2.62239 28.4185 1.80637 24.5817 2.12236C17.0279 2.82113 12.0066 4.86993 7.7916 8.97317C3.07544 13.5644 1.79881 19.0759 1.1128 22.0369C-0.256956 27.9508 -0.365832 34.418 0.806426 40.2469C2.12669 46.812 5.00646 52.3789 9.13424 56.346C13.718 60.751 20.1363 63.362 27.6954 63.8966C28.6734 63.9658 29.6684 64.0002 30.6805 64C36.1881 64 42.1133 62.9833 47.6665 61.0624C51.5738 59.7109 57.4616 56.3742 59.2372 55.0803C61.2542 53.6103 63.1144 51.9099 63.1957 51.8354L63.2253 51.8084C63.569 51.4973 63.8132 51.0917 63.9274 50.6424C64.0416 50.1931 64.0207 49.7201 63.8673 49.2826H63.8671ZM52.1133 11.6811C51.4838 12.2142 50.7263 12.5739 49.9154 12.7248C49.1045 12.8758 48.2682 12.8127 47.4891 12.5419C47.7732 11.7664 47.8383 10.9277 47.6773 10.1177C48.0782 10.0445 48.4869 10.0235 48.8933 10.0554C49.5107 10.1005 50.1132 10.2673 50.6658 10.5463C51.2185 10.8253 51.7104 11.211 52.1133 11.6811ZM46.9098 6.11196C47.8077 5.46307 48.9065 5.15336 50.0112 5.23782C49.9239 6.3422 49.4486 7.38007 48.6695 8.16764C48.0767 8.15424 47.4848 8.22174 46.9103 8.36827C46.8397 8.27049 46.7652 8.17554 46.6871 8.08364C46.6084 7.99224 46.526 7.904 46.4403 7.81913C46.6736 7.27406 46.8316 6.69972 46.9098 6.11196ZM46.1973 14.3989C46.2886 14.3202 46.3767 14.2379 46.4615 14.1522C47.0066 14.3855 47.581 14.5434 48.1688 14.6216C48.8171 15.5198 49.1267 16.6184 49.0428 17.723C47.9386 17.6354 46.9009 17.1603 46.1131 16.3816C46.1266 15.7889 46.0591 15.1972 45.9127 14.6227C46.0105 14.5519 46.1054 14.4773 46.1973 14.3989ZM42.3437 5.38745C42.3888 4.77002 42.5556 4.16762 42.8346 3.61499C43.1136 3.06236 43.4993 2.57044 43.9694 2.16761C44.5024 2.79701 44.8622 3.55454 45.0131 4.36543C45.164 5.17632 45.1009 6.01256 44.83 6.79161C44.0545 6.50774 43.2159 6.44253 42.4058 6.6031C42.3326 6.20233 42.3117 5.7936 42.3437 5.38745ZM40.6866 10.8571C40.6888 10.8156 40.692 10.7743 40.6962 10.7331C40.7044 10.6514 40.7163 10.5702 40.732 10.4896C40.7403 10.4473 40.7502 10.4058 40.7606 10.3642C40.7738 10.3111 40.7886 10.2585 40.8052 10.2063C40.8271 10.1364 40.8519 10.0674 40.8797 9.99957C40.8938 9.96544 40.9093 9.93207 40.925 9.89857C40.9491 9.84631 40.9752 9.79477 41.0031 9.74394C41.0378 9.68008 41.0753 9.61773 41.1153 9.55706C41.3752 9.16459 41.7365 8.84992 42.161 8.64653C42.1651 8.64466 42.1693 8.64328 42.1735 8.64141C42.2107 8.62378 42.2488 8.60816 42.2867 8.59241C42.3038 8.58528 42.3207 8.57741 42.338 8.57078C42.379 8.55478 42.4205 8.5404 42.4621 8.52665C42.4809 8.5204 42.4996 8.51436 42.5185 8.50853C42.5618 8.49515 42.6055 8.4824 42.6492 8.4714C42.6583 8.46915 42.6676 8.4674 42.6767 8.46528C42.7655 8.44415 42.8554 8.42771 42.946 8.41603C42.9622 8.41403 42.9786 8.4114 42.9951 8.40953C43.062 8.40234 43.1291 8.39776 43.1964 8.39578C43.2371 8.39453 43.2777 8.39303 43.3185 8.39353L43.3211 8.39365C43.3984 8.3949 43.4754 8.40053 43.5522 8.40853C43.6327 8.41662 43.7127 8.42842 43.7921 8.4439C43.8334 8.45203 43.8741 8.46178 43.9149 8.47178C43.9685 8.48511 44.0218 8.5002 44.0747 8.51703C44.1445 8.53891 44.2133 8.56368 44.281 8.59128C44.3161 8.60578 44.3506 8.62178 44.385 8.63791C44.4358 8.66149 44.4859 8.68682 44.5352 8.71391C44.5994 8.74875 44.662 8.78632 44.723 8.82654C45.1277 9.09375 45.4491 9.46939 45.6505 9.91057C45.6808 9.97695 45.7083 10.0446 45.7329 10.1133C45.7518 10.166 45.769 10.2191 45.7844 10.2726C45.795 10.3091 45.8055 10.3457 45.8144 10.3826C45.8312 10.4536 45.8451 10.5253 45.8559 10.5975C45.8644 10.6525 45.871 10.7077 45.8759 10.7631C45.8796 10.8048 45.883 10.8466 45.8846 10.8886C45.8877 10.97 45.8871 11.0516 45.8826 11.133C45.8803 11.1761 45.877 11.2191 45.8726 11.262C45.8645 11.3431 45.8526 11.4238 45.837 11.5039C45.8289 11.5447 45.8191 11.5852 45.8092 11.6256C45.7957 11.6802 45.7803 11.7344 45.7632 11.7881C45.7415 11.8576 45.7168 11.9261 45.6892 11.9935C45.6754 12.0271 45.66 12.06 45.6447 12.0929C45.6203 12.1455 45.5941 12.1974 45.5661 12.2485C45.5314 12.3123 45.494 12.3746 45.454 12.4353C45.1979 12.8222 44.843 13.1336 44.4261 13.3372C44.0092 13.5408 43.5454 13.6292 43.0828 13.5932C42.6202 13.5573 42.1756 13.3983 41.7952 13.1327C41.4147 12.8671 41.1122 12.5046 40.919 12.0827C40.8886 12.0163 40.8611 11.9486 40.8365 11.8799C40.8175 11.827 40.8002 11.7737 40.7847 11.72C40.7739 11.6835 40.7639 11.6468 40.7547 11.6099C40.7377 11.5384 40.7238 11.4662 40.713 11.3936C40.7047 11.3402 40.6982 11.2866 40.6933 11.2327C40.6896 11.1896 40.6861 11.1465 40.6843 11.1031C40.6813 11.0211 40.682 10.939 40.6866 10.8571ZM44.2254 16.6051C44.1803 17.2226 44.0135 17.825 43.7345 18.3776C43.4555 18.9303 43.0698 19.4222 42.5997 19.8251C42.0659 19.1962 41.7059 18.4386 41.5552 17.6276C41.4044 16.8166 41.4684 15.9803 41.7406 15.2016C42.126 15.3425 42.5289 15.4301 42.9381 15.4618C43.0564 15.4712 43.1743 15.4758 43.2917 15.4756C43.5838 15.4754 43.8751 15.4466 44.1615 15.3896C44.2353 15.7903 44.2567 16.1989 44.2252 16.6051H44.2254ZM37.5262 4.26942C38.6306 4.35659 39.6685 4.83198 40.456 5.61133C40.4425 6.2041 40.51 6.79595 40.6565 7.3705C40.5587 7.44117 40.4638 7.51569 40.372 7.59388C40.2806 7.67261 40.1923 7.75492 40.1075 7.84064C39.5624 7.60733 38.988 7.44942 38.4003 7.37125C37.7513 6.47326 37.4416 5.37416 37.5262 4.26942ZM40.1287 14.1734C39.8954 14.7185 39.7375 15.2929 39.6593 15.8807C38.7616 16.5301 37.6625 16.8398 36.5578 16.7547C36.645 15.6497 37.1208 14.6113 37.9008 13.8238C37.9506 13.825 38.0003 13.8267 38.0498 13.8267C38.5924 13.8264 39.1328 13.7584 39.6586 13.6242C39.7292 13.722 39.8038 13.8171 39.882 13.909C39.9607 14.0004 40.0431 14.0886 40.1288 14.1734H40.1287ZM37.8879 9.2018C38.2944 9.23281 38.6951 9.31651 39.0799 9.4508C38.7959 10.2262 38.7308 11.0649 38.8918 11.8749C38.0803 12.0224 37.2444 11.9558 36.4665 11.6816C35.6886 11.4075 34.9956 10.9352 34.4559 10.3115C34.9265 9.90919 35.472 9.60404 36.061 9.41359C36.6501 9.22314 37.271 9.15116 37.8879 9.2018ZM61.9586 50.4258L61.926 50.4558C61.9075 50.4726 60.0626 52.1587 58.133 53.5648C56.6226 54.6655 50.8705 57.97 47.0536 59.2904C40.7148 61.4832 33.887 62.4551 27.8276 62.0262C20.6101 61.5158 14.7578 59.1499 10.4335 54.994C6.58247 51.2932 3.8892 46.0659 2.64469 39.8772C1.52393 34.3046 1.62868 28.1192 2.93957 22.46C3.62707 19.4918 4.77795 14.5238 9.09961 10.3167C12.9815 6.5376 17.6634 4.6453 24.7547 3.98928C26.5297 3.85266 28.3152 3.97541 30.0548 4.35367C32.1024 4.82066 34.0568 5.62897 35.8361 6.74473C35.8934 6.78017 35.9544 6.80934 36.0179 6.83173C36.092 7.03755 36.1764 7.23952 36.2707 7.43687C34.8126 7.71921 33.4911 8.48163 32.5169 9.60256C32.3858 9.75411 32.3066 9.9437 32.2911 10.1435C32.2756 10.3433 32.3246 10.5429 32.4308 10.7128C33.2205 11.9707 34.4087 12.9278 35.8059 13.4314C34.968 14.6618 34.5729 16.1404 34.6852 17.6248C34.6996 17.8247 34.7777 18.0147 34.908 18.1669C35.0383 18.3192 35.214 18.4257 35.4093 18.4708C35.9055 18.5859 36.4132 18.6442 36.9226 18.6445C37.8924 18.6448 38.85 18.4287 39.7257 18.012C40.0082 19.4694 40.7703 20.7902 41.8907 21.764C42.0423 21.8952 42.2319 21.9744 42.4317 21.9899C42.6316 22.0054 42.8311 21.9565 43.0011 21.8503C43.5596 21.5006 44.0626 21.0692 44.4934 20.5705C45.0425 23.6643 45.1609 26.8054 45.1954 29.303C45.292 36.3169 47.7439 42.1442 52.0992 45.7116C54.8697 47.9807 58.2345 48.908 58.3661 48.9436C59.4417 49.2474 60.5437 49.4487 61.6572 49.5449C61.7551 49.5541 61.8482 49.5914 61.9255 49.6522C62.0027 49.7131 62.0607 49.7949 62.0925 49.888C62.1243 49.981 62.1286 50.0812 62.1049 50.1766C62.0811 50.272 62.0303 50.3585 61.9586 50.4258ZM20.4046 32.4845C20.3401 32.3796 20.2556 32.2885 20.1559 32.2162C20.0562 32.144 19.9433 32.0921 19.8235 32.0635C19.7037 32.0349 19.5795 32.0302 19.4579 32.0497C19.3364 32.0691 19.2198 32.1123 19.1149 32.1768C18.487 32.5638 17.7774 32.7989 17.0425 32.8634C16.0356 32.9392 15.0303 32.6981 14.1673 32.1738C14.062 32.11 13.9452 32.0675 13.8235 32.0488C13.7018 32.0301 13.5776 32.0356 13.458 32.0649C13.3384 32.0943 13.2258 32.1469 13.1265 32.2197C13.0273 32.2926 12.9433 32.3842 12.8795 32.4895C12.8157 32.5948 12.7732 32.7117 12.7546 32.8334C12.7359 32.9551 12.7414 33.0792 12.7707 33.1988C12.8 33.3184 12.8526 33.431 12.9254 33.5303C12.9983 33.6296 13.09 33.7135 13.1953 33.7773C14.2412 34.4093 15.4385 34.747 16.6605 34.7546C16.836 34.7546 17.016 34.7475 17.1999 34.732C18.227 34.6425 19.219 34.3146 20.0969 33.7742C20.3087 33.644 20.4601 33.4349 20.5178 33.1931C20.5755 32.9512 20.5348 32.6964 20.4046 32.4845ZM39.3665 22.9613C35.4737 20.0382 31.9574 18.9193 28.9158 19.6352C28.0471 19.8397 27.5057 20.119 26.7565 20.5052C25.6638 21.0776 24.5382 21.5849 23.3856 22.0245C21.2703 22.8458 19.4436 23.5552 17.3533 23.8429C14.7615 24.1996 12.0381 23.8596 9.25861 22.8317C9.11687 22.7792 8.96456 22.7618 8.81464 22.781C8.66473 22.8001 8.52167 22.8552 8.39765 22.9416C8.27362 23.0279 8.17232 23.143 8.10236 23.2769C8.0324 23.4109 7.99586 23.5598 7.99585 23.7109V38.6134C8.00358 41.6109 8.79084 44.5548 10.2803 47.156C11.7698 49.7572 13.9102 51.9262 16.4914 53.45L18.7816 54.7964C20.3237 55.7022 22.0798 56.1798 23.8683 56.1798C25.6569 56.1798 27.413 55.7022 28.9551 54.7964L31.2455 53.45C33.8267 51.9261 35.9671 49.7571 37.4565 47.1559C38.946 44.5548 39.7332 41.6109 39.741 38.6134V23.7109C39.741 23.5655 39.7071 23.422 39.6421 23.2919C39.5771 23.1618 39.4828 23.0486 39.3665 22.9613ZM37.8659 38.6134C37.8589 41.2844 37.1573 43.9075 35.83 46.2253C34.5027 48.5431 32.5953 50.4757 30.2953 51.8334L28.005 53.18C26.7509 53.9166 25.3228 54.305 23.8684 54.305C22.414 54.305 20.9859 53.9166 19.7318 53.18L17.4417 51.8334C15.1416 50.4757 13.2342 48.5431 11.9069 46.2253C10.5795 43.9076 9.87789 41.2844 9.87087 38.6134V25.015C12.5093 25.8144 15.1068 26.045 17.609 25.7005C19.9173 25.3826 21.9316 24.6005 24.0641 23.7724C25.2785 23.3094 26.4645 22.7749 27.6157 22.1718C28.2927 21.8226 28.7014 21.612 29.3454 21.4605C31.7306 20.8992 34.5953 21.8155 37.8659 24.1843V38.6134ZM27.1281 45.4114C26.9364 45.2532 26.6896 45.1775 26.4422 45.2012C26.1947 45.2248 25.9667 45.3457 25.8084 45.5374C25.3605 46.0904 24.7303 46.4656 24.0307 46.5957C22.4272 46.8664 21.2299 45.5294 21.2181 45.5158C21.054 45.3289 20.8225 45.2148 20.5744 45.1987C20.3262 45.1826 20.0819 45.2657 19.895 45.4297C19.7081 45.5937 19.5941 45.8253 19.5779 46.0734C19.5618 46.3215 19.6449 46.5659 19.8089 46.7528C19.9814 46.9495 21.4192 48.5088 23.5806 48.5088C23.8359 48.5087 24.0907 48.4872 24.3425 48.4446C25.4864 48.2393 26.5192 47.6316 27.2541 46.7313C27.3325 46.6364 27.3914 46.5269 27.4275 46.4092C27.4636 46.2915 27.4762 46.1678 27.4645 46.0452C27.4528 45.9227 27.4171 45.8036 27.3593 45.6949C27.3016 45.5861 27.2231 45.4898 27.1281 45.4114ZM26.2027 32.1735C25.9901 32.0447 25.7349 32.0056 25.4935 32.0648C25.252 32.1241 25.0439 32.2768 24.915 32.4895C24.7862 32.7021 24.7471 32.9573 24.8063 33.1988C24.8656 33.4403 25.0183 33.6483 25.231 33.7772C26.2769 34.4091 27.4741 34.7468 28.6961 34.7545C28.8717 34.7545 29.0516 34.7473 29.2355 34.7318C30.2625 34.6424 31.2545 34.3145 32.1324 33.7741C32.2386 33.7102 32.331 33.626 32.4045 33.5262C32.4779 33.4264 32.5308 33.313 32.5601 33.1927C32.5895 33.0723 32.5947 32.9473 32.5754 32.8249C32.5562 32.7025 32.5129 32.5852 32.448 32.4796C32.3831 32.3741 32.2979 32.2824 32.1974 32.21C32.0969 32.1376 31.983 32.0858 31.8624 32.0576C31.7418 32.0295 31.6167 32.0255 31.4945 32.0459C31.3723 32.0664 31.2554 32.1109 31.1505 32.1768C30.5225 32.5637 29.8128 32.7988 29.078 32.8633C28.0711 32.9389 27.0658 32.6978 26.2027 32.1737V32.1735Z" fill="#420E40"/>
</svg>
